# xmcd
#
# Track frame offsets: 
#        300
#        29868
#        51597
#        82446
#        108660
#        129514
#        160114
#        178122
#        204459
#        239499
#        271343
#
# Disc length: 3956 seconds
#
# Revision: 0
# Processed by: cddbd v1.5.2PL0 Copyright (c) Steve Scherf et al.
# Submitted via: ExactAudioCopy v1.0b1
#
DISCID=ad0f700b
DTITLE=Dana Gillespie (Third Man) - In The Garden Of Heavenly Peac
DYEAR=2001
DGENRE=Blues
TTITLE0=Through Love
TTITLE1=Under The Sun
TTITLE2=Stealer Of Hearts
TTITLE3=Strange Are The Ways Of Love
TTITLE4=Move Your Body Close To Me
TTITLE5=Three Words
TTITLE6=Watch Over Me
TTITLE7=In The Garden Of Heavenly Peace
TTITLE8=Silently Sighing
TTITLE9=Prema Iswara Hai
TTITLE10=Shower The Rose Petals
EXTD=
EXTT0=
EXTT1=
EXTT2=
EXTT3=
EXTT4=
EXTT5=
EXTT6=
EXTT7=
EXTT8=
EXTT9=
EXTT10=
PLAYORDER=
